{
  "accessors": [
    {
      "bufferView": 2,
      "componentType": 5126,
      "count": 65532,
      "max": [
        -17.69720458984375,
        9.030915260314941,
        31.562759399414063
      ],
      "min": [
        -46.21309280395508,
        -7.36591100692749,
        0.9829890131950378
      ],
      "type": "VEC3"
    },
    {
      "bufferView": 2,
      "byteOffset": 786384,
      "componentType": 5126,
      "count": 65532,
      "max": [
        0.9999991655349731,
        0.9999985694885254,
        0.9998633861541748
      ],
      "min": [
        -0.9999979734420776,
        -0.999994158744812,
        -0.9998176693916321
      ],
      "type": "VEC3"
    },
    {
      "bufferView": 1,
      "componentType": 5126,
      "count": 65532,
      "max": [
        0.9995790123939514,
        0.9998779892921448
      ],
      "min": [
        0.00012199999764561653,
        0.00018699999782256782
      ],
      "type": "VEC2"
    },
    {
      "bufferView": 0,
      "componentType": 5125,
      "count": 306384,
      "type": "SCALAR"
    },
    {
      "bufferView": 2,
      "byteOffset": 1572768,
      "componentType": 5126,
      "count": 65533,
      "max": [
        -19.33095932006836,
        8.883649826049805,
        31.74152374267578
      ],
      "min": [
        -42.23047637939453,
        -7.3350830078125,
        0.982990026473999
      ],
      "type": "VEC3"
    },
    {
      "bufferView": 2,
      "byteOffset": 2359164,
      "componentType": 5126,
      "count": 65533,
      "max": [
        0.9999830722808838,
        0.9999887943267822,
        0.9999995231628418
      ],
      "min": [
        -0.9999839067459106,
        -0.9999935626983643,
        -0.9998577833175659
      ],
      "type": "VEC3"
    },
    {
      "bufferView": 1,
      "byteOffset": 524256,
      "componentType": 5126,
      "count": 65533,
      "max": [
        0.999800980091095,
        0.9998779892921448
      ],
      "min": [
        0.00012199999764561653,
        0.00019299999985378236
      ],
      "type": "VEC2"
    },
    {
      "bufferView": 0,
      "byteOffset": 1225536,
      "componentType": 5125,
      "count": 298743,
      "type": "SCALAR"
    },
    {
      "bufferView": 2,
      "byteOffset": 3145560,
      "componentType": 5126,
      "count": 65533,
      "max": [
        -18.62926483154297,
        8.525697708129883,
        31.312772750854492
      ],
      "min": [
        -46.05581283569336,
        -6.372028827667236,
        0.9829890131950378
      ],
      "type": "VEC3"
    },
    {
      "bufferView": 2,
      "byteOffset": 3931956,
      "componentType": 5126,
      "count": 65533,
      "max": [
        0.9999974966049194,
        0.9997668862342834,
        0.9999955892562866
      ],
      "min": [
        -0.9999839067459106,
        -0.9999887943267822,
        -0.9999409914016724
      ],
      "type": "VEC3"
    },
    {
      "bufferView": 1,
      "byteOffset": 1048520,
      "componentType": 5126,
      "count": 65533,
      "max": [
        0.9998109936714172,
        0.9998779892921448
      ],
      "min": [
        0.00012199999764561653,
        0.0001849999971454963
      ],
      "type": "VEC2"
    },
    {
      "bufferView": 0,
      "byteOffset": 2420508,
      "componentType": 5125,
      "count": 280683,
      "type": "SCALAR"
    },
    {
      "bufferView": 2,
      "byteOffset": 4718352,
      "componentType": 5126,
      "count": 65532,
      "max": [
        -16.879430770874023,
        9.030915260314941,
        25.83657455444336
      ],
      "min": [
        -46.21309280395508,
        -7.389761924743652,
        0.9829890131950378
      ],
      "type": "VEC3"
    },
    {
      "bufferView": 2,
      "byteOffset": 5504736,
      "componentType": 5126,
      "count": 65532,
      "max": [
        0.9999983310699463,
        0.9999887943267822,
        0.9999997615814209
      ],
      "min": [
        -0.9999831914901733,
        -0.999994158744812,
        -0.9991154074668884
      ],
      "type": "VEC3"
    },
    {
      "bufferView": 1,
      "byteOffset": 1572784,
      "componentType": 5126,
      "count": 65532,
      "max": [
        0.9997910261154175,
        0.9998779892921448
      ],
      "min": [
        0.00012199999764561653,
        0.00018400000408291817
      ],
      "type": "VEC2"
    },
    {
      "bufferView": 0,
      "byteOffset": 3543240,
      "componentType": 5125,
      "count": 282693,
      "type": "SCALAR"
    },
    {
      "bufferView": 2,
      "byteOffset": 6291120,
      "componentType": 5126,
      "count": 65533,
      "max": [
        -15.67160415649414,
        8.87405014038086,
        22.50338363647461
      ],
      "min": [
        -46.21309280395508,
        -6.353335857391357,
        0.9897500276565552
      ],
      "type": "VEC3"
    },
    {
      "bufferView": 2,
      "byteOffset": 7077516,
      "componentType": 5126,
      "count": 65533,
      "max": [
        0.9999798536300659,
        0.9999985694885254,
        0.9999997615814209
      ],
      "min": [
        -0.9999861717224121,
        -0.9999860525131226,
        -0.9999550580978394
      ],
      "type": "VEC3"
    },
    {
      "bufferView": 1,
      "byteOffset": 2097040,
      "componentType": 5126,
      "count": 65533,
      "max": [
        0.9996970295906067,
        0.9998779892921448
      ],
      "min": [
        0.00012199999764561653,
        0.0001849999971454963
      ],
      "type": "VEC2"
    },
    {
      "bufferView": 0,
      "byteOffset": 4674012,
      "componentType": 5125,
      "count": 250821,
      "type": "SCALAR"
    },
    {
      "bufferView": 2,
      "byteOffset": 7863912,
      "componentType": 5126,
      "count": 13108,
      "max": [
        -17.051151275634766,
        8.880375862121582,
        17.372787475585938
      ],
      "min": [
        -36.552310943603516,
        -3.8924269676208496,
        2.0492451190948486
      ],
      "type": "VEC3"
    },
    {
      "bufferView": 2,
      "byteOffset": 8021208,
      "componentType": 5126,
      "count": 13108,
      "max": [
        0.9995051026344299,
        0.9995370507240295,
        0.9999948740005493
      ],
      "min": [
        -0.9990386962890625,
        -0.9999709129333496,
        -0.9996213316917419
      ],
      "type": "VEC3"
    },
    {
      "bufferView": 1,
      "byteOffset": 2621304,
      "componentType": 5126,
      "count": 13108,
      "max": [
        0.9998130202293396,
        0.9998779892921448
      ],
      "min": [
        0.00012199999764561653,
        0.00018699999782256782
      ],
      "type": "VEC2"
    },
    {
      "bufferView": 0,
      "byteOffset": 5677296,
      "componentType": 5125,
      "count": 46482,
      "type": "SCALAR"
    },
    {
      "bufferView": 2,
      "byteOffset": 8178504,
      "componentType": 5126,
      "count": 4418,
      "max": [
        -18.958728790283203,
        9.023665428161621,
        0.9829919934272766
      ],
      "min": [
        -44.02906799316406,
        -7.344335079193115,
        0.9829890131950378
      ],
      "type": "VEC3"
    },
    {
      "bufferView": 2,
      "byteOffset": 8231520,
      "componentType": 5126,
      "count": 4418,
      "max": [
        0.2737109959125519,
        0.05479905754327774,
        0.9599385857582092
      ],
      "min": [
        -0.08740263432264328,
        -0.9625290036201477,
        -1.0
      ],
      "type": "VEC3"
    },
    {
      "bufferView": 1,
      "byteOffset": 2726168,
      "componentType": 5126,
      "count": 4418,
      "max": [
        0.8444169759750366,
        0.6764559745788574
      ],
      "min": [
        0.7906559705734253,
        0.5617780089378357
      ],
      "type": "VEC2"
    },
    {
      "bufferView": 0,
      "byteOffset": 5863224,
      "componentType": 5125,
      "count": 6324,
      "type": "SCALAR"
    }
  ],
  "asset": {
    "extras": {
      "author": "noe-3d.at (https://sketchfab.com/www.noe-3d.at)",
      "license": "CC0-1.0 (http://creativecommons.org/publicdomain/zero/1.0/)",
      "source": "https://sketchfab.com/3d-models/lowe-46eea1a922bd433a935351e7c2eff652",
      "title": "Löwe"
    },
    "generator": "Sketchfab-12.20.0",
    "version": "2.0"
  },
  "bufferViews": [
    {
      "buffer": 0,
      "byteLength": 5888520,
      "name": "floatBufferViews",
      "target": 34963
    },
    {
      "buffer": 0,
      "byteLength": 2761512,
      "byteOffset": 5888520,
      "byteStride": 8,
      "name": "floatBufferViews",
      "target": 34962
    },
    {
      "buffer": 0,
      "byteLength": 8284536,
      "byteOffset": 8650032,
      "byteStride": 12,
      "name": "floatBufferViews",
      "target": 34962
    }
  ],
  "buffers": [
    {
      "byteLength": 16934568,
      "uri": "scene.bin"
    }
  ],
  "images": [
    {
      "uri": "textures/Loewe2_O_Material_u1_v1_baseColor.png"
    }
  ],
  "materials": [
    {
      "doubleSided": true,
      "name": "Loewe2_O_Material_u1_v1",
      "pbrMetallicRoughness": {
        "baseColorTexture": {
          "index": 0
        },
        "metallicFactor": 0.0
      }
    },
    {
      "doubleSided": true,
      "name": "bottom",
      "pbrMetallicRoughness": {
        "baseColorFactor": [
          0.04699379613331388,
          0.04699379613331388,
          0.04699379613331388,
          1.0
        ],
        "metallicFactor": 0.0
      }
    }
  ],
  "meshes": [
    {
      "name": "Object_0",
      "primitives": [
        {
          "attributes": {
            "NORMAL": 1,
            "POSITION": 0,
            "TEXCOORD_0": 2
          },
          "indices": 3,
          "material": 0,
          "mode": 4
        }
      ]
    },
    {
      "name": "Object_1",
      "primitives": [
        {
          "attributes": {
            "NORMAL": 5,
            "POSITION": 4,
            "TEXCOORD_0": 6
          },
          "indices": 7,
          "material": 0,
          "mode": 4
        }
      ]
    },
    {
      "name": "Object_2",
      "primitives": [
        {
          "attributes": {
            "NORMAL": 9,
            "POSITION": 8,
            "TEXCOORD_0": 10
          },
          "indices": 11,
          "material": 0,
          "mode": 4
        }
      ]
    },
    {
      "name": "Object_3",
      "primitives": [
        {
          "attributes": {
            "NORMAL": 13,
            "POSITION": 12,
            "TEXCOORD_0": 14
          },
          "indices": 15,
          "material": 0,
          "mode": 4
        }
      ]
    },
    {
      "name": "Object_4",
      "primitives": [
        {
          "attributes": {
            "NORMAL": 17,
            "POSITION": 16,
            "TEXCOORD_0": 18
          },
          "indices": 19,
          "material": 0,
          "mode": 4
        }
      ]
    },
    {
      "name": "Object_5",
      "primitives": [
        {
          "attributes": {
            "NORMAL": 21,
            "POSITION": 20,
            "TEXCOORD_0": 22
          },
          "indices": 23,
          "material": 0,
          "mode": 4
        }
      ]
    },
    {
      "name": "Object_6",
      "primitives": [
        {
          "attributes": {
            "NORMAL": 25,
            "POSITION": 24,
            "TEXCOORD_0": 26
          },
          "indices": 27,
          "material": 1,
          "mode": 4
        }
      ]
    }
  ],
  "nodes": [
    {
      "children": [
        1
      ],
      "matrix": [
        0.040663703645350324,
        1.1383180995711297e-18,
        -0.005126528969057631,
        0.0,
        -0.005126528969057631,
        9.029156010720368e-18,
        -0.040663703645350324,
        0.0,
        0.0,
        0.0409855842590332,
        9.10062786441861e-18,
        0.0,
        -0.14036698639392853,
        8.608120027842005e-16,
        -3.8767526149749756,
        1.0
      ],
      "name": "Sketchfab_model"
    },
    {
      "children": [
        2,
        3,
        4,
        5,
        6,
        7,
        8
      ],
      "name": "Loewe2_C.obj.cleaner.materialmerger.gles"
    },
    {
      "mesh": 0,
      "name": "Object_2"
    },
    {
      "mesh": 1,
      "name": "Object_3"
    },
    {
      "mesh": 2,
      "name": "Object_4"
    },
    {
      "mesh": 3,
      "name": "Object_5"
    },
    {
      "mesh": 4,
      "name": "Object_6"
    },
    {
      "mesh": 5,
      "name": "Object_7"
    },
    {
      "mesh": 6,
      "name": "Object_8"
    }
  ],
  "samplers": [
    {
      "magFilter": 9729,
      "minFilter": 9987,
      "wrapS": 10497,
      "wrapT": 10497
    }
  ],
  "scene": 0,
  "scenes": [
    {
      "name": "Sketchfab_Scene",
      "nodes": [
        0
      ]
    }
  ],
  "textures": [
    {
      "sampler": 0,
      "source": 0
    }
  ]
}
